<?xml version="1.0" encoding="UTF-8" standalone="no"?>
<!DOCTYPE svg PUBLIC "-//W3C//DTD SVG 1.1//EN"
 "http://www.w3.org/Graphics/SVG/1.1/DTD/svg11.dtd">
<!-- Generated by graphviz version 2.43.0 (0)
 -->
<!-- Title: G Pages: 1 -->
<svg width="755pt" height="599pt"
 viewBox="0.00 0.00 754.50 599.00" xmlns="http://www.w3.org/2000/svg" xmlns:xlink="http://www.w3.org/1999/xlink">
<g id="graph0" class="graph" transform="scale(1 1) rotate(0) translate(4 595)">
<title>G</title>
<polygon fill="white" stroke="transparent" points="-4,4 -4,-595 750.5,-595 750.5,4 -4,4"/>
<!-- stack_slots -->
<g id="node1" class="node">
<title>stack_slots</title>
<polygon fill="none" stroke="black" points="402.5,-575 348.5,-575 348.5,-539 402.5,-539 402.5,-575"/>
</g>
<!-- block_0 -->
<g id="node2" class="node">
<title>block_0</title>
<polygon fill="none" stroke="black" points="618.5,-591 420.5,-591 420.5,-523 618.5,-523 618.5,-591"/>
<text text-anchor="start" x="428.5" y="-575.8" font-family="Courier,monospace" font-size="14.00">block_0: ; entry</text>
<text text-anchor="start" x="428.5" y="-560.8" font-family="Courier,monospace" font-size="14.00">%0 = load_const 0 ; i </text>
<text text-anchor="start" x="428.5" y="-545.8" font-family="Courier,monospace" font-size="14.00">%1 = load_const 1 ; 1 </text>
<text text-anchor="middle" x="519.5" y="-530.8" font-family="Courier,monospace" font-size="14.00">jump block_2</text>
</g>
<!-- block_2 -->
<g id="node4" class="node">
<title>block_2</title>
<polygon fill="none" stroke="black" points="746.5,-486 292.5,-486 292.5,-403 746.5,-403 746.5,-486"/>
<text text-anchor="start" x="300.5" y="-470.8" font-family="Courier,monospace" font-size="14.00">block_2: ; for loop condition at line 6</text>
<text text-anchor="start" x="300.5" y="-455.8" font-family="Courier,monospace" font-size="14.00">%4 = phi { block_0 &#45;&gt; %1, block_6 &#45;&gt; %15 } ; i &#160;&#160;&#160;&#160;&#160;&#160;</text>
<text text-anchor="start" x="300.5" y="-440.8" font-family="Courier,monospace" font-size="14.00">%5 = load global:row &#160;&#160;&#160;&#160;&#160;&#160;&#160;&#160;&#160;&#160;&#160;&#160;&#160;&#160;&#160;&#160;&#160;&#160;&#160;&#160;&#160;&#160;; row &#160;&#160;&#160;&#160;</text>
<text text-anchor="start" x="300.5" y="-425.8" font-family="Courier,monospace" font-size="14.00">%6 = less %4, %5 &#160;&#160;&#160;&#160;&#160;&#160;&#160;&#160;&#160;&#160;&#160;&#160;&#160;&#160;&#160;&#160;&#160;&#160;&#160;&#160;&#160;&#160;&#160;&#160;&#160;&#160;; i &lt; row </text>
<text text-anchor="middle" x="519.5" y="-410.8" font-family="Courier,monospace" font-size="14.00">cond_jump %6 block_1 block_3</text>
</g>
<!-- block_0&#45;&gt;block_2 -->
<g id="edge1" class="edge">
<title>block_0&#45;&gt;block_2</title>
<path fill="none" stroke="black" d="M519.5,-522.85C519.5,-514.44 519.5,-505.22 519.5,-496.16"/>
<polygon fill="black" stroke="black" points="523,-496.06 519.5,-486.06 516,-496.06 523,-496.06"/>
</g>
<!-- block_1 -->
<g id="node3" class="node">
<title>block_1</title>
<polygon fill="none" stroke="black" points="459,-352 162,-352 162,-284 459,-284 459,-352"/>
<text text-anchor="start" x="170" y="-336.8" font-family="Courier,monospace" font-size="14.00">block_1: ; for loop body at line 6</text>
<text text-anchor="start" x="170" y="-321.8" font-family="Courier,monospace" font-size="14.00">%2 = mul %4, %5 ; i * %4 &#160;&#160;&#160;&#160;&#160;</text>
<text text-anchor="start" x="170" y="-306.8" font-family="Courier,monospace" font-size="14.00">%3 = sub %2, %5 ; i * %4 &#45; %4 </text>
<text text-anchor="middle" x="310.5" y="-291.8" font-family="Courier,monospace" font-size="14.00">jump block_5</text>
</g>
<!-- block_5 -->
<g id="node7" class="node">
<title>block_5</title>
<polygon fill="none" stroke="black" points="534.5,-247 72.5,-247 72.5,-164 534.5,-164 534.5,-247"/>
<text text-anchor="start" x="80.5" y="-231.8" font-family="Courier,monospace" font-size="14.00">block_5: ; for loop condition at line 7</text>
<text text-anchor="start" x="80.5" y="-216.8" font-family="Courier,monospace" font-size="14.00">%12 = phi { block_4 &#45;&gt; %11, block_1 &#45;&gt; %0 } ; j &#160;&#160;&#160;&#160;&#160;&#160;</text>
<text text-anchor="start" x="80.5" y="-201.8" font-family="Courier,monospace" font-size="14.00">%13 = load global:col &#160;&#160;&#160;&#160;&#160;&#160;&#160;&#160;&#160;&#160;&#160;&#160;&#160;&#160;&#160;&#160;&#160;&#160;&#160;&#160;&#160;&#160;; col &#160;&#160;&#160;&#160;</text>
<text text-anchor="start" x="80.5" y="-186.8" font-family="Courier,monospace" font-size="14.00">%14 = less %12, %13 &#160;&#160;&#160;&#160;&#160;&#160;&#160;&#160;&#160;&#160;&#160;&#160;&#160;&#160;&#160;&#160;&#160;&#160;&#160;&#160;&#160;&#160;&#160;&#160;; j &lt; col </text>
<text text-anchor="middle" x="303.5" y="-171.8" font-family="Courier,monospace" font-size="14.00">cond_jump %14 block_4 block_6</text>
</g>
<!-- block_1&#45;&gt;block_5 -->
<g id="edge2" class="edge">
<title>block_1&#45;&gt;block_5</title>
<path fill="none" stroke="black" d="M308.4,-283.85C307.87,-275.44 307.28,-266.22 306.71,-257.16"/>
<polygon fill="black" stroke="black" points="310.19,-256.81 306.07,-247.06 303.21,-257.26 310.19,-256.81"/>
</g>
<!-- block_2&#45;&gt;block_1 -->
<g id="edge3" class="edge">
<title>block_2&#45;&gt;block_1</title>
<path fill="none" stroke="black" d="M451.35,-402.91C426.74,-388.24 399.05,-371.75 374.78,-357.29"/>
<polygon fill="black" stroke="black" points="376.39,-354.18 366.01,-352.06 372.81,-360.19 376.39,-354.18"/>
<text text-anchor="middle" x="437" y="-373.8" font-family="Times,serif" font-size="14.00">true</text>
</g>
<!-- block_3 -->
<g id="node5" class="node">
<title>block_3</title>
<polygon fill="none" stroke="black" points="561,-337 478,-337 478,-299 561,-299 561,-337"/>
<text text-anchor="start" x="486" y="-321.8" font-family="Courier,monospace" font-size="14.00">block_3:</text>
<text text-anchor="middle" x="519.5" y="-306.8" font-family="Courier,monospace" font-size="14.00">return</text>
</g>
<!-- block_2&#45;&gt;block_3 -->
<g id="edge4" class="edge">
<title>block_2&#45;&gt;block_3</title>
<path fill="none" stroke="black" d="M519.5,-402.73C519.5,-384.58 519.5,-363.66 519.5,-347.26"/>
<polygon fill="black" stroke="black" points="523,-347.22 519.5,-337.22 516,-347.22 523,-347.22"/>
<text text-anchor="middle" x="536.5" y="-373.8" font-family="Times,serif" font-size="14.00">false</text>
</g>
<!-- block_4 -->
<g id="node6" class="node">
<title>block_4</title>
<polygon fill="none" stroke="black" points="495,-113 0,-113 0,0 495,0 495,-113"/>
<text text-anchor="start" x="8" y="-97.8" font-family="Courier,monospace" font-size="14.00">block_4: ; for loop body at line 7</text>
<text text-anchor="start" x="8" y="-82.8" font-family="Courier,monospace" font-size="14.00">%7 &#160;= add %12, %3 &#160;&#160;&#160;&#160;&#160;&#160;&#160;&#160;&#160;&#160;&#160;&#160;&#160;&#160;&#160;&#160;&#160;&#160;&#160;&#160;; (i &#45; 1) * row + j </text>
<text text-anchor="start" x="8" y="-67.8" font-family="Courier,monospace" font-size="14.00">%8 &#160;= add %12, %2 &#160;&#160;&#160;&#160;&#160;&#160;&#160;&#160;&#160;&#160;&#160;&#160;&#160;&#160;&#160;&#160;&#160;&#160;&#160;&#160;; i * row + j &#160;&#160;&#160;&#160;&#160;&#160;</text>
<text text-anchor="start" x="8" y="-52.8" font-family="Courier,monospace" font-size="14.00">%9 &#160;= load_array global:image[%8] &#160;&#160;&#160;&#160;; image[i2] &#160;&#160;&#160;&#160;&#160;&#160;&#160;&#160;</text>
<text text-anchor="start" x="8" y="-37.8" font-family="Courier,monospace" font-size="14.00">%10 = store_array global:image[%7] %9 </text>
<text text-anchor="start" x="8" y="-22.8" font-family="Courier,monospace" font-size="14.00">%11 = add %12, %1 &#160;&#160;&#160;&#160;&#160;&#160;&#160;&#160;&#160;&#160;&#160;&#160;&#160;&#160;&#160;&#160;&#160;&#160;&#160;&#160;</text>
<text text-anchor="middle" x="247.5" y="-7.8" font-family="Courier,monospace" font-size="14.00">jump block_5</text>
</g>
<!-- block_4&#45;&gt;block_5 -->
<g id="edge5" class="edge">
<title>block_4&#45;&gt;block_5</title>
<path fill="none" stroke="black" d="M281.8,-113.16C284.67,-119.06 287.31,-125.07 289.5,-131 292.19,-138.28 294.39,-146.17 296.17,-153.99"/>
<polygon fill="black" stroke="black" points="292.75,-154.72 298.22,-163.79 299.6,-153.29 292.75,-154.72"/>
</g>
<!-- block_5&#45;&gt;block_4 -->
<g id="edge6" class="edge">
<title>block_5&#45;&gt;block_4</title>
<path fill="none" stroke="black" d="M264.25,-163.73C260.4,-158.1 257.01,-152.13 254.5,-146 251.55,-138.78 249.49,-130.95 248.09,-123.04"/>
<polygon fill="black" stroke="black" points="251.53,-122.42 246.64,-113.02 244.6,-123.41 251.53,-122.42"/>
<text text-anchor="middle" x="270" y="-134.8" font-family="Times,serif" font-size="14.00">true</text>
</g>
<!-- block_6 -->
<g id="node8" class="node">
<title>block_6</title>
<polygon fill="none" stroke="black" points="670,-83 513,-83 513,-30 670,-30 670,-83"/>
<text text-anchor="start" x="521" y="-67.8" font-family="Courier,monospace" font-size="14.00">block_6:</text>
<text text-anchor="start" x="521" y="-52.8" font-family="Courier,monospace" font-size="14.00">%15 = add %4, %1 </text>
<text text-anchor="middle" x="591.5" y="-37.8" font-family="Courier,monospace" font-size="14.00">jump block_2</text>
</g>
<!-- block_5&#45;&gt;block_6 -->
<g id="edge7" class="edge">
<title>block_5&#45;&gt;block_6</title>
<path fill="none" stroke="black" d="M398.88,-163.99C432.43,-148.92 470.08,-131.08 503.5,-113 517.05,-105.67 531.35,-97.06 544.38,-88.84"/>
<polygon fill="black" stroke="black" points="546.63,-91.56 553.18,-83.23 542.87,-85.65 546.63,-91.56"/>
<text text-anchor="middle" x="483.5" y="-134.8" font-family="Times,serif" font-size="14.00">false</text>
</g>
<!-- block_6&#45;&gt;block_2 -->
<g id="edge8" class="edge">
<title>block_6&#45;&gt;block_2</title>
<path fill="none" stroke="black" d="M592.26,-83.09C593.23,-134.67 592.63,-254.53 570.5,-352 567.23,-366.41 560.9,-380.89 553.78,-393.94"/>
<polygon fill="black" stroke="black" points="550.67,-392.32 548.75,-402.73 556.75,-395.79 550.67,-392.32"/>
</g>
</g>
</svg>
