<?xml version="1.0" encoding="UTF-8" standalone="no"?>
<!DOCTYPE svg PUBLIC "-//W3C//DTD SVG 1.1//EN"
 "http://www.w3.org/Graphics/SVG/1.1/DTD/svg11.dtd">
<!-- Generated by graphviz version 2.43.0 (0)
 -->
<!-- Title: G Pages: 1 -->
<svg width="763pt" height="614pt"
 viewBox="0.00 0.00 762.50 614.00" xmlns="http://www.w3.org/2000/svg" xmlns:xlink="http://www.w3.org/1999/xlink">
<g id="graph0" class="graph" transform="scale(1 1) rotate(0) translate(4 610)">
<title>G</title>
<polygon fill="white" stroke="transparent" points="-4,4 -4,-610 758.5,-610 758.5,4 -4,4"/>
<!-- stack_slots -->
<g id="node1" class="node">
<title>stack_slots</title>
<polygon fill="none" stroke="black" points="389.5,-567.5 335.5,-567.5 335.5,-531.5 389.5,-531.5 389.5,-567.5"/>
</g>
<!-- block_0 -->
<g id="node2" class="node">
<title>block_0</title>
<polygon fill="none" stroke="black" points="647,-606 408,-606 408,-493 647,-493 647,-606"/>
<text text-anchor="start" x="416" y="-590.8" font-family="Courier,monospace" font-size="14.00">block_0: ; entry</text>
<text text-anchor="start" x="416" y="-575.8" font-family="Courier,monospace" font-size="14.00">%0 = load_const 0 &#160;&#160;&#160;; i &#160;&#160;</text>
<text text-anchor="start" x="416" y="-560.8" font-family="Courier,monospace" font-size="14.00">%1 = load_const 1 &#160;&#160;&#160;; 1 &#160;&#160;</text>
<text text-anchor="start" x="416" y="-545.8" font-family="Courier,monospace" font-size="14.00">%2 = load global:row </text>
<text text-anchor="start" x="416" y="-530.8" font-family="Courier,monospace" font-size="14.00">%3 = load global:col </text>
<text text-anchor="start" x="416" y="-515.8" font-family="Courier,monospace" font-size="14.00">%4 = neg %2 &#160;&#160;&#160;&#160;&#160;&#160;&#160;&#160;&#160;; &#45;%3 </text>
<text text-anchor="middle" x="527.5" y="-500.8" font-family="Courier,monospace" font-size="14.00">jump block_2</text>
</g>
<!-- block_2 -->
<g id="node4" class="node">
<title>block_2</title>
<polygon fill="none" stroke="black" points="754.5,-456 300.5,-456 300.5,-373 754.5,-373 754.5,-456"/>
<text text-anchor="start" x="308.5" y="-440.8" font-family="Courier,monospace" font-size="14.00">block_2: ; for loop condition at line 6</text>
<text text-anchor="start" x="308.5" y="-425.8" font-family="Courier,monospace" font-size="14.00">%6 = phi { block_0 &#45;&gt; %2, block_6 &#45;&gt; %17 } </text>
<text text-anchor="start" x="308.5" y="-410.8" font-family="Courier,monospace" font-size="14.00">%7 = phi { block_0 &#45;&gt; %1, block_6 &#45;&gt; %16 } ; i &#160;&#160;&#160;&#160;&#160;&#160;</text>
<text text-anchor="start" x="308.5" y="-395.8" font-family="Courier,monospace" font-size="14.00">%8 = less %7, %2 &#160;&#160;&#160;&#160;&#160;&#160;&#160;&#160;&#160;&#160;&#160;&#160;&#160;&#160;&#160;&#160;&#160;&#160;&#160;&#160;&#160;&#160;&#160;&#160;&#160;&#160;; i &lt; row </text>
<text text-anchor="middle" x="527.5" y="-380.8" font-family="Courier,monospace" font-size="14.00">cond_jump %8 block_1 block_3</text>
</g>
<!-- block_0&#45;&gt;block_2 -->
<g id="edge1" class="edge">
<title>block_0&#45;&gt;block_2</title>
<path fill="none" stroke="black" d="M527.5,-492.87C527.5,-484.16 527.5,-475.2 527.5,-466.61"/>
<polygon fill="black" stroke="black" points="531,-466.34 527.5,-456.34 524,-466.34 531,-466.34"/>
</g>
<!-- block_1 -->
<g id="node3" class="node">
<title>block_1</title>
<polygon fill="none" stroke="black" points="467,-322 170,-322 170,-269 467,-269 467,-322"/>
<text text-anchor="start" x="178" y="-306.8" font-family="Courier,monospace" font-size="14.00">block_1: ; for loop body at line 6</text>
<text text-anchor="start" x="178" y="-291.8" font-family="Courier,monospace" font-size="14.00">%5 = add %6, %4 ; &#45;%3 + %3 * i </text>
<text text-anchor="middle" x="318.5" y="-276.8" font-family="Courier,monospace" font-size="14.00">jump block_5</text>
</g>
<!-- block_5 -->
<g id="node7" class="node">
<title>block_5</title>
<polygon fill="none" stroke="black" points="540.5,-232 78.5,-232 78.5,-164 540.5,-164 540.5,-232"/>
<text text-anchor="start" x="86.5" y="-216.8" font-family="Courier,monospace" font-size="14.00">block_5: ; for loop condition at line 7</text>
<text text-anchor="start" x="86.5" y="-201.8" font-family="Courier,monospace" font-size="14.00">%14 = phi { block_1 &#45;&gt; %0, block_4 &#45;&gt; %13 } ; j &#160;&#160;&#160;&#160;&#160;&#160;</text>
<text text-anchor="start" x="86.5" y="-186.8" font-family="Courier,monospace" font-size="14.00">%15 = less %14, %3 &#160;&#160;&#160;&#160;&#160;&#160;&#160;&#160;&#160;&#160;&#160;&#160;&#160;&#160;&#160;&#160;&#160;&#160;&#160;&#160;&#160;&#160;&#160;&#160;&#160;; j &lt; col </text>
<text text-anchor="middle" x="309.5" y="-171.8" font-family="Courier,monospace" font-size="14.00">cond_jump %15 block_4 block_6</text>
</g>
<!-- block_1&#45;&gt;block_5 -->
<g id="edge2" class="edge">
<title>block_1&#45;&gt;block_5</title>
<path fill="none" stroke="black" d="M316.09,-268.91C315.32,-260.72 314.44,-251.41 313.58,-242.32"/>
<polygon fill="black" stroke="black" points="317.05,-241.85 312.63,-232.22 310.08,-242.51 317.05,-241.85"/>
</g>
<!-- block_2&#45;&gt;block_1 -->
<g id="edge3" class="edge">
<title>block_2&#45;&gt;block_1</title>
<path fill="none" stroke="black" d="M454.99,-372.91C428.11,-357.86 398.1,-341.06 373.08,-327.06"/>
<polygon fill="black" stroke="black" points="374.54,-323.86 364.11,-322.03 371.12,-329.97 374.54,-323.86"/>
<text text-anchor="middle" x="439" y="-343.8" font-family="Times,serif" font-size="14.00">true</text>
</g>
<!-- block_3 -->
<g id="node5" class="node">
<title>block_3</title>
<polygon fill="none" stroke="black" points="569,-314.5 486,-314.5 486,-276.5 569,-276.5 569,-314.5"/>
<text text-anchor="start" x="494" y="-299.3" font-family="Courier,monospace" font-size="14.00">block_3:</text>
<text text-anchor="middle" x="527.5" y="-284.3" font-family="Courier,monospace" font-size="14.00">return</text>
</g>
<!-- block_2&#45;&gt;block_3 -->
<g id="edge4" class="edge">
<title>block_2&#45;&gt;block_3</title>
<path fill="none" stroke="black" d="M527.5,-372.91C527.5,-357.13 527.5,-339.43 527.5,-325.04"/>
<polygon fill="black" stroke="black" points="531,-324.77 527.5,-314.77 524,-324.77 531,-324.77"/>
<text text-anchor="middle" x="544.5" y="-343.8" font-family="Times,serif" font-size="14.00">false</text>
</g>
<!-- block_4 -->
<g id="node6" class="node">
<title>block_4</title>
<polygon fill="none" stroke="black" points="503,-113 0,-113 0,0 503,0 503,-113"/>
<text text-anchor="start" x="8" y="-97.8" font-family="Courier,monospace" font-size="14.00">block_4: ; for loop body at line 7</text>
<text text-anchor="start" x="8" y="-82.8" font-family="Courier,monospace" font-size="14.00">%9 &#160;= add %14, %5 &#160;&#160;&#160;&#160;&#160;&#160;&#160;&#160;&#160;&#160;&#160;&#160;&#160;&#160;&#160;&#160;&#160;&#160;&#160;&#160;&#160;; (i &#45; 1) * row + j </text>
<text text-anchor="start" x="8" y="-67.8" font-family="Courier,monospace" font-size="14.00">%10 = add %6, %14 &#160;&#160;&#160;&#160;&#160;&#160;&#160;&#160;&#160;&#160;&#160;&#160;&#160;&#160;&#160;&#160;&#160;&#160;&#160;&#160;&#160;; i * row + j &#160;&#160;&#160;&#160;&#160;&#160;</text>
<text text-anchor="start" x="8" y="-52.8" font-family="Courier,monospace" font-size="14.00">%11 = load_array global:image[%10] &#160;&#160;&#160;&#160;; image[i2] &#160;&#160;&#160;&#160;&#160;&#160;&#160;&#160;</text>
<text text-anchor="start" x="8" y="-37.8" font-family="Courier,monospace" font-size="14.00">%12 = store_array global:image[%9] %11 </text>
<text text-anchor="start" x="8" y="-22.8" font-family="Courier,monospace" font-size="14.00">%13 = add %14, %1 &#160;&#160;&#160;&#160;&#160;&#160;&#160;&#160;&#160;&#160;&#160;&#160;&#160;&#160;&#160;&#160;&#160;&#160;&#160;&#160;&#160;</text>
<text text-anchor="middle" x="251.5" y="-7.8" font-family="Courier,monospace" font-size="14.00">jump block_5</text>
</g>
<!-- block_4&#45;&gt;block_5 -->
<g id="edge5" class="edge">
<title>block_4&#45;&gt;block_5</title>
<path fill="none" stroke="black" d="M287.34,-113.11C290.37,-119.02 293.16,-125.05 295.5,-131 298.33,-138.2 300.63,-146.08 302.49,-153.81"/>
<polygon fill="black" stroke="black" points="299.12,-154.79 304.68,-163.81 305.96,-153.29 299.12,-154.79"/>
</g>
<!-- block_5&#45;&gt;block_4 -->
<g id="edge6" class="edge">
<title>block_5&#45;&gt;block_4</title>
<path fill="none" stroke="black" d="M272.03,-163.97C267.5,-158.4 263.44,-152.35 260.5,-146 257.22,-138.9 254.88,-131.15 253.24,-123.29"/>
<polygon fill="black" stroke="black" points="256.67,-122.56 251.53,-113.3 249.77,-123.74 256.67,-122.56"/>
<text text-anchor="middle" x="276" y="-134.8" font-family="Times,serif" font-size="14.00">true</text>
</g>
<!-- block_6 -->
<g id="node8" class="node">
<title>block_6</title>
<polygon fill="none" stroke="black" points="678,-90.5 521,-90.5 521,-22.5 678,-22.5 678,-90.5"/>
<text text-anchor="start" x="529" y="-75.3" font-family="Courier,monospace" font-size="14.00">block_6:</text>
<text text-anchor="start" x="529" y="-60.3" font-family="Courier,monospace" font-size="14.00">%16 = add %7, %1 </text>
<text text-anchor="start" x="529" y="-45.3" font-family="Courier,monospace" font-size="14.00">%17 = add %6, %2 </text>
<text text-anchor="middle" x="599.5" y="-30.3" font-family="Courier,monospace" font-size="14.00">jump block_2</text>
</g>
<!-- block_5&#45;&gt;block_6 -->
<g id="edge7" class="edge">
<title>block_5&#45;&gt;block_6</title>
<path fill="none" stroke="black" d="M397.97,-163.97C433.83,-149.62 475.25,-131.8 511.5,-113 521.42,-107.86 531.69,-101.96 541.55,-95.97"/>
<polygon fill="black" stroke="black" points="543.42,-98.92 550.1,-90.7 539.75,-92.96 543.42,-98.92"/>
<text text-anchor="middle" x="491.5" y="-134.8" font-family="Times,serif" font-size="14.00">false</text>
</g>
<!-- block_6&#45;&gt;block_2 -->
<g id="edge8" class="edge">
<title>block_6&#45;&gt;block_2</title>
<path fill="none" stroke="black" d="M599.99,-90.55C600.03,-141.09 597.39,-240.32 578.5,-322 575.17,-336.4 568.82,-350.87 561.7,-363.93"/>
<polygon fill="black" stroke="black" points="558.59,-362.3 556.67,-372.72 564.67,-365.77 558.59,-362.3"/>
</g>
</g>
</svg>
