<?xml version="1.0" encoding="UTF-8" standalone="no"?>
<!DOCTYPE svg PUBLIC "-//W3C//DTD SVG 1.1//EN"
 "http://www.w3.org/Graphics/SVG/1.1/DTD/svg11.dtd">
<!-- Generated by graphviz version 2.43.0 (0)
 -->
<!-- Title: G Pages: 1 -->
<svg width="763pt" height="614pt"
 viewBox="0.00 0.00 762.50 614.00" xmlns="http://www.w3.org/2000/svg" xmlns:xlink="http://www.w3.org/1999/xlink">
<g id="graph0" class="graph" transform="scale(1 1) rotate(0) translate(4 610)">
<title>G</title>
<polygon fill="white" stroke="transparent" points="-4,4 -4,-610 758.5,-610 758.5,4 -4,4"/>
<!-- stack_slots -->
<g id="node1" class="node">
<title>stack_slots</title>
<polygon fill="none" stroke="black" points="410.5,-590 356.5,-590 356.5,-554 410.5,-554 410.5,-590"/>
</g>
<!-- block_0 -->
<g id="node2" class="node">
<title>block_0</title>
<polygon fill="none" stroke="black" points="626.5,-606 428.5,-606 428.5,-538 626.5,-538 626.5,-606"/>
<text text-anchor="start" x="436.5" y="-590.8" font-family="Courier,monospace" font-size="14.00">block_0: ; entry</text>
<text text-anchor="start" x="436.5" y="-575.8" font-family="Courier,monospace" font-size="14.00">%0 = load_const 0 ; i </text>
<text text-anchor="start" x="436.5" y="-560.8" font-family="Courier,monospace" font-size="14.00">%1 = load_const 1 ; 1 </text>
<text text-anchor="middle" x="527.5" y="-545.8" font-family="Courier,monospace" font-size="14.00">jump block_2</text>
</g>
<!-- block_2 -->
<g id="node4" class="node">
<title>block_2</title>
<polygon fill="none" stroke="black" points="754.5,-501 300.5,-501 300.5,-418 754.5,-418 754.5,-501"/>
<text text-anchor="start" x="308.5" y="-485.8" font-family="Courier,monospace" font-size="14.00">block_2: ; for loop condition at line 6</text>
<text text-anchor="start" x="308.5" y="-470.8" font-family="Courier,monospace" font-size="14.00">%2 = phi { block_6 &#45;&gt; %16, block_0 &#45;&gt; %1 } ; i &#160;&#160;&#160;&#160;&#160;&#160;</text>
<text text-anchor="start" x="308.5" y="-455.8" font-family="Courier,monospace" font-size="14.00">%3 = load global:row &#160;&#160;&#160;&#160;&#160;&#160;&#160;&#160;&#160;&#160;&#160;&#160;&#160;&#160;&#160;&#160;&#160;&#160;&#160;&#160;&#160;&#160;; row &#160;&#160;&#160;&#160;</text>
<text text-anchor="start" x="308.5" y="-440.8" font-family="Courier,monospace" font-size="14.00">%4 = less %2, %3 &#160;&#160;&#160;&#160;&#160;&#160;&#160;&#160;&#160;&#160;&#160;&#160;&#160;&#160;&#160;&#160;&#160;&#160;&#160;&#160;&#160;&#160;&#160;&#160;&#160;&#160;; i &lt; row </text>
<text text-anchor="middle" x="527.5" y="-425.8" font-family="Courier,monospace" font-size="14.00">cond_jump %4 block_1 block_3</text>
</g>
<!-- block_0&#45;&gt;block_2 -->
<g id="edge1" class="edge">
<title>block_0&#45;&gt;block_2</title>
<path fill="none" stroke="black" d="M527.5,-537.85C527.5,-529.44 527.5,-520.22 527.5,-511.16"/>
<polygon fill="black" stroke="black" points="531,-511.06 527.5,-501.06 524,-511.06 531,-511.06"/>
</g>
<!-- block_1 -->
<g id="node3" class="node">
<title>block_1</title>
<polygon fill="none" stroke="black" points="467,-367 170,-367 170,-329 467,-329 467,-367"/>
<text text-anchor="start" x="178" y="-351.8" font-family="Courier,monospace" font-size="14.00">block_1: ; for loop body at line 6</text>
<text text-anchor="middle" x="318.5" y="-336.8" font-family="Courier,monospace" font-size="14.00">jump block_5</text>
</g>
<!-- block_5 -->
<g id="node7" class="node">
<title>block_5</title>
<polygon fill="none" stroke="black" points="540.5,-292 78.5,-292 78.5,-209 540.5,-209 540.5,-292"/>
<text text-anchor="start" x="86.5" y="-276.8" font-family="Courier,monospace" font-size="14.00">block_5: ; for loop condition at line 7</text>
<text text-anchor="start" x="86.5" y="-261.8" font-family="Courier,monospace" font-size="14.00">%13 = phi { block_1 &#45;&gt; %0, block_4 &#45;&gt; %12 } ; j &#160;&#160;&#160;&#160;&#160;&#160;</text>
<text text-anchor="start" x="86.5" y="-246.8" font-family="Courier,monospace" font-size="14.00">%14 = load global:col &#160;&#160;&#160;&#160;&#160;&#160;&#160;&#160;&#160;&#160;&#160;&#160;&#160;&#160;&#160;&#160;&#160;&#160;&#160;&#160;&#160;&#160;; col &#160;&#160;&#160;&#160;</text>
<text text-anchor="start" x="86.5" y="-231.8" font-family="Courier,monospace" font-size="14.00">%15 = less %13, %14 &#160;&#160;&#160;&#160;&#160;&#160;&#160;&#160;&#160;&#160;&#160;&#160;&#160;&#160;&#160;&#160;&#160;&#160;&#160;&#160;&#160;&#160;&#160;&#160;; j &lt; col </text>
<text text-anchor="middle" x="309.5" y="-216.8" font-family="Courier,monospace" font-size="14.00">cond_jump %15 block_4 block_6</text>
</g>
<!-- block_1&#45;&gt;block_5 -->
<g id="edge2" class="edge">
<title>block_1&#45;&gt;block_5</title>
<path fill="none" stroke="black" d="M316.76,-328.59C316.04,-320.94 315.17,-311.66 314.28,-302.23"/>
<polygon fill="black" stroke="black" points="317.74,-301.63 313.32,-292 310.77,-302.28 317.74,-301.63"/>
</g>
<!-- block_2&#45;&gt;block_1 -->
<g id="edge3" class="edge">
<title>block_2&#45;&gt;block_1</title>
<path fill="none" stroke="black" d="M449.97,-417.88C420.28,-402.32 387.47,-385.13 362.05,-371.82"/>
<polygon fill="black" stroke="black" points="363.52,-368.64 353.04,-367.1 360.27,-374.84 363.52,-368.64"/>
<text text-anchor="middle" x="426" y="-388.8" font-family="Times,serif" font-size="14.00">true</text>
</g>
<!-- block_3 -->
<g id="node5" class="node">
<title>block_3</title>
<polygon fill="none" stroke="black" points="569,-367 486,-367 486,-329 569,-329 569,-367"/>
<text text-anchor="start" x="494" y="-351.8" font-family="Courier,monospace" font-size="14.00">block_3:</text>
<text text-anchor="middle" x="527.5" y="-336.8" font-family="Courier,monospace" font-size="14.00">return</text>
</g>
<!-- block_2&#45;&gt;block_3 -->
<g id="edge4" class="edge">
<title>block_2&#45;&gt;block_3</title>
<path fill="none" stroke="black" d="M527.5,-417.73C527.5,-404.28 527.5,-389.62 527.5,-377.31"/>
<polygon fill="black" stroke="black" points="531,-377.19 527.5,-367.19 524,-377.19 531,-377.19"/>
<text text-anchor="middle" x="544.5" y="-388.8" font-family="Times,serif" font-size="14.00">false</text>
</g>
<!-- block_4 -->
<g id="node6" class="node">
<title>block_4</title>
<polygon fill="none" stroke="black" points="503,-158 0,-158 0,0 503,0 503,-158"/>
<text text-anchor="start" x="8" y="-142.8" font-family="Courier,monospace" font-size="14.00">block_4: ; for loop body at line 7</text>
<text text-anchor="start" x="8" y="-127.8" font-family="Courier,monospace" font-size="14.00">%5 &#160;= sub %2, %1 &#160;&#160;&#160;&#160;&#160;&#160;&#160;&#160;&#160;&#160;&#160;&#160;&#160;&#160;&#160;&#160;&#160;&#160;&#160;&#160;&#160;&#160;; (i &#45; 1) &#160;&#160;&#160;&#160;&#160;&#160;&#160;&#160;&#160;&#160;</text>
<text text-anchor="start" x="8" y="-112.8" font-family="Courier,monospace" font-size="14.00">%6 &#160;= mul %5, %3 &#160;&#160;&#160;&#160;&#160;&#160;&#160;&#160;&#160;&#160;&#160;&#160;&#160;&#160;&#160;&#160;&#160;&#160;&#160;&#160;&#160;&#160;; (i &#45; 1) * row &#160;&#160;&#160;&#160;</text>
<text text-anchor="start" x="8" y="-97.8" font-family="Courier,monospace" font-size="14.00">%7 &#160;= add %6, %13 &#160;&#160;&#160;&#160;&#160;&#160;&#160;&#160;&#160;&#160;&#160;&#160;&#160;&#160;&#160;&#160;&#160;&#160;&#160;&#160;&#160;; (i &#45; 1) * row + j </text>
<text text-anchor="start" x="8" y="-82.8" font-family="Courier,monospace" font-size="14.00">%8 &#160;= mul %2, %3 &#160;&#160;&#160;&#160;&#160;&#160;&#160;&#160;&#160;&#160;&#160;&#160;&#160;&#160;&#160;&#160;&#160;&#160;&#160;&#160;&#160;&#160;; i * row &#160;&#160;&#160;&#160;&#160;&#160;&#160;&#160;&#160;&#160;</text>
<text text-anchor="start" x="8" y="-67.8" font-family="Courier,monospace" font-size="14.00">%9 &#160;= add %8, %13 &#160;&#160;&#160;&#160;&#160;&#160;&#160;&#160;&#160;&#160;&#160;&#160;&#160;&#160;&#160;&#160;&#160;&#160;&#160;&#160;&#160;; i * row + j &#160;&#160;&#160;&#160;&#160;&#160;</text>
<text text-anchor="start" x="8" y="-52.8" font-family="Courier,monospace" font-size="14.00">%10 = load_array global:image[%9] &#160;&#160;&#160;&#160;&#160;; image[i2] &#160;&#160;&#160;&#160;&#160;&#160;&#160;&#160;</text>
<text text-anchor="start" x="8" y="-37.8" font-family="Courier,monospace" font-size="14.00">%11 = store_array global:image[%7] %10 </text>
<text text-anchor="start" x="8" y="-22.8" font-family="Courier,monospace" font-size="14.00">%12 = add %13, %1 &#160;&#160;&#160;&#160;&#160;&#160;&#160;&#160;&#160;&#160;&#160;&#160;&#160;&#160;&#160;&#160;&#160;&#160;&#160;&#160;&#160;</text>
<text text-anchor="middle" x="251.5" y="-7.8" font-family="Courier,monospace" font-size="14.00">jump block_5</text>
</g>
<!-- block_4&#45;&gt;block_5 -->
<g id="edge5" class="edge">
<title>block_4&#45;&gt;block_5</title>
<path fill="none" stroke="black" d="M289.2,-158.24C291.5,-164.19 293.63,-170.15 295.5,-176 297.81,-183.23 299.79,-190.98 301.48,-198.65"/>
<polygon fill="black" stroke="black" points="298.09,-199.53 303.53,-208.62 304.94,-198.12 298.09,-199.53"/>
</g>
<!-- block_5&#45;&gt;block_4 -->
<g id="edge6" class="edge">
<title>block_5&#45;&gt;block_4</title>
<path fill="none" stroke="black" d="M270.26,-208.73C266.41,-203.1 263.01,-197.13 260.5,-191 257.53,-183.77 255.28,-176.05 253.59,-168.18"/>
<polygon fill="black" stroke="black" points="257,-167.36 251.74,-158.16 250.11,-168.63 257,-167.36"/>
<text text-anchor="middle" x="276" y="-179.8" font-family="Times,serif" font-size="14.00">true</text>
</g>
<!-- block_6 -->
<g id="node8" class="node">
<title>block_6</title>
<polygon fill="none" stroke="black" points="678,-105.5 521,-105.5 521,-52.5 678,-52.5 678,-105.5"/>
<text text-anchor="start" x="529" y="-90.3" font-family="Courier,monospace" font-size="14.00">block_6:</text>
<text text-anchor="start" x="529" y="-75.3" font-family="Courier,monospace" font-size="14.00">%16 = add %2, %1 </text>
<text text-anchor="middle" x="599.5" y="-60.3" font-family="Courier,monospace" font-size="14.00">jump block_2</text>
</g>
<!-- block_5&#45;&gt;block_6 -->
<g id="edge7" class="edge">
<title>block_5&#45;&gt;block_6</title>
<path fill="none" stroke="black" d="M414.88,-208.91C446.96,-194.69 481.62,-177.38 511.5,-158 531.37,-145.11 551.31,-127.89 567.16,-112.9"/>
<polygon fill="black" stroke="black" points="569.82,-115.21 574.6,-105.75 564.97,-110.16 569.82,-115.21"/>
<text text-anchor="middle" x="497.5" y="-179.8" font-family="Times,serif" font-size="14.00">false</text>
</g>
<!-- block_6&#45;&gt;block_2 -->
<g id="edge8" class="edge">
<title>block_6&#45;&gt;block_2</title>
<path fill="none" stroke="black" d="M600.19,-105.72C601,-156.41 600.04,-272.5 578.5,-367 575.22,-381.41 568.88,-395.89 561.76,-408.94"/>
<polygon fill="black" stroke="black" points="558.66,-407.31 556.73,-417.73 564.73,-410.79 558.66,-407.31"/>
</g>
</g>
</svg>
