<?xml version="1.0" encoding="UTF-8" standalone="no"?>
<!DOCTYPE svg PUBLIC "-//W3C//DTD SVG 1.1//EN"
 "http://www.w3.org/Graphics/SVG/1.1/DTD/svg11.dtd">
<!-- Generated by graphviz version 2.43.0 (0)
 -->
<!-- Title: G Pages: 1 -->
<svg width="620pt" height="300pt"
 viewBox="0.00 0.00 620.00 300.00" xmlns="http://www.w3.org/2000/svg" xmlns:xlink="http://www.w3.org/1999/xlink">
<g id="graph0" class="graph" transform="scale(1 1) rotate(0) translate(4 296)">
<title>G</title>
<polygon fill="white" stroke="transparent" points="-4,4 -4,-296 616,-296 616,4 -4,4"/>
<!-- stack_slots -->
<g id="node1" class="node">
<title>stack_slots</title>
<polygon fill="none" stroke="black" points="163.5,-262 23.5,-262 23.5,-224 163.5,-224 163.5,-262"/>
<text text-anchor="start" x="31.5" y="-246.8" font-family="Courier,monospace" font-size="14.00">stack_0 int v1 </text>
<text text-anchor="start" x="31.5" y="-231.8" font-family="Courier,monospace" font-size="14.00">stack_1 int v2 </text>
</g>
<!-- block_0 -->
<g id="node2" class="node">
<title>block_0</title>
<polygon fill="none" stroke="black" points="429.5,-292 181.5,-292 181.5,-194 429.5,-194 429.5,-292"/>
<text text-anchor="start" x="189.5" y="-276.8" font-family="Courier,monospace" font-size="14.00">block_0: ; entry</text>
<text text-anchor="start" x="189.5" y="-261.8" font-family="Courier,monospace" font-size="14.00">%0 = load stack_1 ; v2 &#160;&#160;&#160;&#160;&#160;</text>
<text text-anchor="start" x="189.5" y="-246.8" font-family="Courier,monospace" font-size="14.00">%1 = load stack_0 ; v1 &#160;&#160;&#160;&#160;&#160;</text>
<text text-anchor="start" x="189.5" y="-231.8" font-family="Courier,monospace" font-size="14.00">%2 = load_const 0 ; v3 &#160;&#160;&#160;&#160;&#160;</text>
<text text-anchor="start" x="189.5" y="-216.8" font-family="Courier,monospace" font-size="14.00">%3 = less %1, %0 &#160;; v1 &lt; v2 </text>
<text text-anchor="middle" x="305.5" y="-201.8" font-family="Courier,monospace" font-size="14.00">cond_jump %3 block_1 block_2</text>
</g>
<!-- block_1 -->
<g id="node3" class="node">
<title>block_1</title>
<polygon fill="none" stroke="black" points="297,-143 0,-143 0,-90 297,-90 297,-143"/>
<text text-anchor="start" x="8" y="-127.8" font-family="Courier,monospace" font-size="14.00">block_1: ; if&#45;then block at line 3</text>
<text text-anchor="start" x="8" y="-112.8" font-family="Courier,monospace" font-size="14.00">%4 = add %1, %0 ; v1 + v2 </text>
<text text-anchor="middle" x="148.5" y="-97.8" font-family="Courier,monospace" font-size="14.00">jump block_3</text>
</g>
<!-- block_0&#45;&gt;block_1 -->
<g id="edge1" class="edge">
<title>block_0&#45;&gt;block_1</title>
<path fill="none" stroke="black" d="M244.8,-193.87C226.11,-179.05 206.01,-163.1 189.02,-149.63"/>
<polygon fill="black" stroke="black" points="190.97,-146.71 180.96,-143.24 186.62,-152.19 190.97,-146.71"/>
<text text-anchor="middle" x="233" y="-164.8" font-family="Times,serif" font-size="14.00">true</text>
</g>
<!-- block_2 -->
<g id="node4" class="node">
<title>block_2</title>
<polygon fill="none" stroke="black" points="612,-143 315,-143 315,-90 612,-90 612,-143"/>
<text text-anchor="start" x="323" y="-127.8" font-family="Courier,monospace" font-size="14.00">block_2: ; if&#45;else block at line 3</text>
<text text-anchor="start" x="323" y="-112.8" font-family="Courier,monospace" font-size="14.00">%5 = sub %1, %0 ; v1 &#45; v2 </text>
<text text-anchor="middle" x="463.5" y="-97.8" font-family="Courier,monospace" font-size="14.00">jump block_3</text>
</g>
<!-- block_0&#45;&gt;block_2 -->
<g id="edge2" class="edge">
<title>block_0&#45;&gt;block_2</title>
<path fill="none" stroke="black" d="M366.59,-193.87C385.39,-179.05 405.63,-163.1 422.72,-149.63"/>
<polygon fill="black" stroke="black" points="425.15,-152.18 430.84,-143.24 420.82,-146.68 425.15,-152.18"/>
<text text-anchor="middle" x="424.5" y="-164.8" font-family="Times,serif" font-size="14.00">false</text>
</g>
<!-- block_3 -->
<g id="node5" class="node">
<title>block_3</title>
<polygon fill="none" stroke="black" points="421,-53 190,-53 190,0 421,0 421,-53"/>
<text text-anchor="start" x="198" y="-37.8" font-family="Courier,monospace" font-size="14.00">block_3:</text>
<text text-anchor="start" x="198" y="-22.8" font-family="Courier,monospace" font-size="14.00">%6 = add %1, %0 ; v1 + v2 </text>
<text text-anchor="middle" x="305.5" y="-7.8" font-family="Courier,monospace" font-size="14.00">return %6</text>
</g>
<!-- block_1&#45;&gt;block_3 -->
<g id="edge3" class="edge">
<title>block_1&#45;&gt;block_3</title>
<path fill="none" stroke="black" d="M194.33,-89.81C212.07,-79.87 232.51,-68.41 250.99,-58.05"/>
<polygon fill="black" stroke="black" points="252.87,-61.01 259.88,-53.07 249.45,-54.91 252.87,-61.01"/>
</g>
<!-- block_2&#45;&gt;block_3 -->
<g id="edge4" class="edge">
<title>block_2&#45;&gt;block_3</title>
<path fill="none" stroke="black" d="M417.38,-89.81C399.53,-79.87 378.96,-68.41 360.36,-58.05"/>
<polygon fill="black" stroke="black" points="361.85,-54.88 351.41,-53.07 358.44,-60.99 361.85,-54.88"/>
</g>
</g>
</svg>
