<?xml version="1.0" encoding="UTF-8" standalone="no"?>
<!DOCTYPE svg PUBLIC "-//W3C//DTD SVG 1.1//EN"
 "http://www.w3.org/Graphics/SVG/1.1/DTD/svg11.dtd">
<!-- Generated by graphviz version 2.43.0 (0)
 -->
<!-- Title: G Pages: 1 -->
<svg width="620pt" height="315pt"
 viewBox="0.00 0.00 620.00 315.00" xmlns="http://www.w3.org/2000/svg" xmlns:xlink="http://www.w3.org/1999/xlink">
<g id="graph0" class="graph" transform="scale(1 1) rotate(0) translate(4 311)">
<title>G</title>
<polygon fill="white" stroke="transparent" points="-4,4 -4,-311 616,-311 616,4 -4,4"/>
<!-- stack_slots -->
<g id="node1" class="node">
<title>stack_slots</title>
<polygon fill="none" stroke="black" points="163.5,-277 23.5,-277 23.5,-239 163.5,-239 163.5,-277"/>
<text text-anchor="start" x="31.5" y="-261.8" font-family="Courier,monospace" font-size="14.00">stack_0 int v1 </text>
<text text-anchor="start" x="31.5" y="-246.8" font-family="Courier,monospace" font-size="14.00">stack_1 int v2 </text>
</g>
<!-- block_0 -->
<g id="node2" class="node">
<title>block_0</title>
<polygon fill="none" stroke="black" points="429.5,-307 181.5,-307 181.5,-209 429.5,-209 429.5,-307"/>
<text text-anchor="start" x="189.5" y="-291.8" font-family="Courier,monospace" font-size="14.00">block_0: ; entry</text>
<text text-anchor="start" x="189.5" y="-276.8" font-family="Courier,monospace" font-size="14.00">%0 = load stack_1 ; v2 &#160;&#160;&#160;&#160;&#160;</text>
<text text-anchor="start" x="189.5" y="-261.8" font-family="Courier,monospace" font-size="14.00">%1 = load stack_0 ; v1 &#160;&#160;&#160;&#160;&#160;</text>
<text text-anchor="start" x="189.5" y="-246.8" font-family="Courier,monospace" font-size="14.00">%2 = load_const 0 ; v3 &#160;&#160;&#160;&#160;&#160;</text>
<text text-anchor="start" x="189.5" y="-231.8" font-family="Courier,monospace" font-size="14.00">%3 = less %1, %0 &#160;; v1 &lt; v2 </text>
<text text-anchor="middle" x="305.5" y="-216.8" font-family="Courier,monospace" font-size="14.00">cond_jump %3 block_1 block_2</text>
</g>
<!-- block_1 -->
<g id="node3" class="node">
<title>block_1</title>
<polygon fill="none" stroke="black" points="297,-150.5 0,-150.5 0,-97.5 297,-97.5 297,-150.5"/>
<text text-anchor="start" x="8" y="-135.3" font-family="Courier,monospace" font-size="14.00">block_1: ; if&#45;then block at line 3</text>
<text text-anchor="start" x="8" y="-120.3" font-family="Courier,monospace" font-size="14.00">%4 = add %1, %0 ; v1 + v2 </text>
<text text-anchor="middle" x="148.5" y="-105.3" font-family="Courier,monospace" font-size="14.00">jump block_3</text>
</g>
<!-- block_0&#45;&gt;block_1 -->
<g id="edge1" class="edge">
<title>block_0&#45;&gt;block_1</title>
<path fill="none" stroke="black" d="M248.38,-208.97C227.82,-191.69 205.14,-172.62 186.59,-157.03"/>
<polygon fill="black" stroke="black" points="188.83,-154.33 178.92,-150.58 184.32,-159.69 188.83,-154.33"/>
<text text-anchor="middle" x="242" y="-179.8" font-family="Times,serif" font-size="14.00">true</text>
</g>
<!-- block_2 -->
<g id="node4" class="node">
<title>block_2</title>
<polygon fill="none" stroke="black" points="612,-158 315,-158 315,-90 612,-90 612,-158"/>
<text text-anchor="start" x="323" y="-142.8" font-family="Courier,monospace" font-size="14.00">block_2: ; if&#45;else block at line 3</text>
<text text-anchor="start" x="323" y="-127.8" font-family="Courier,monospace" font-size="14.00">%5 = sub %1, %0 ; v1 &#45; v2 </text>
<text text-anchor="start" x="323" y="-112.8" font-family="Courier,monospace" font-size="14.00">%6 = add %0, %1 </text>
<text text-anchor="middle" x="463.5" y="-97.8" font-family="Courier,monospace" font-size="14.00">jump block_3</text>
</g>
<!-- block_0&#45;&gt;block_2 -->
<g id="edge2" class="edge">
<title>block_0&#45;&gt;block_2</title>
<path fill="none" stroke="black" d="M362.99,-208.97C380.28,-194.53 399.05,-178.84 415.65,-164.98"/>
<polygon fill="black" stroke="black" points="418.17,-167.43 423.6,-158.33 413.68,-162.06 418.17,-167.43"/>
<text text-anchor="middle" x="415.5" y="-179.8" font-family="Times,serif" font-size="14.00">false</text>
</g>
<!-- block_3 -->
<g id="node5" class="node">
<title>block_3</title>
<polygon fill="none" stroke="black" points="528.5,-53 82.5,-53 82.5,0 528.5,0 528.5,-53"/>
<text text-anchor="start" x="90.5" y="-37.8" font-family="Courier,monospace" font-size="14.00">block_3:</text>
<text text-anchor="start" x="90.5" y="-22.8" font-family="Courier,monospace" font-size="14.00">%7 = phi { block_2 &#45;&gt; %6, block_1 &#45;&gt; %4 } ; v1 + v2 </text>
<text text-anchor="middle" x="305.5" y="-7.8" font-family="Courier,monospace" font-size="14.00">return %7</text>
</g>
<!-- block_1&#45;&gt;block_3 -->
<g id="edge3" class="edge">
<title>block_1&#45;&gt;block_3</title>
<path fill="none" stroke="black" d="M190.57,-97.41C210.28,-85.42 233.93,-71.03 254.64,-58.44"/>
<polygon fill="black" stroke="black" points="256.59,-61.35 263.31,-53.16 252.95,-55.37 256.59,-61.35"/>
</g>
<!-- block_2&#45;&gt;block_3 -->
<g id="edge4" class="edge">
<title>block_2&#45;&gt;block_3</title>
<path fill="none" stroke="black" d="M408.68,-89.87C391.84,-79.68 373.37,-68.52 356.77,-58.49"/>
<polygon fill="black" stroke="black" points="358.13,-55.22 347.76,-53.05 354.51,-61.21 358.13,-55.22"/>
</g>
</g>
</svg>
