<?xml version="1.0" encoding="UTF-8" standalone="no"?>
<!DOCTYPE svg PUBLIC "-//W3C//DTD SVG 1.1//EN"
 "http://www.w3.org/Graphics/SVG/1.1/DTD/svg11.dtd">
<!-- Generated by graphviz version 2.43.0 (0)
 -->
<!-- Title: G Pages: 1 -->
<svg width="763pt" height="629pt"
 viewBox="0.00 0.00 762.50 629.00" xmlns="http://www.w3.org/2000/svg" xmlns:xlink="http://www.w3.org/1999/xlink">
<g id="graph0" class="graph" transform="scale(1 1) rotate(0) translate(4 625)">
<title>G</title>
<polygon fill="white" stroke="transparent" points="-4,4 -4,-625 758.5,-625 758.5,4 -4,4"/>
<!-- stack_slots -->
<g id="node1" class="node">
<title>stack_slots</title>
<polygon fill="none" stroke="black" points="406.5,-597.5 352.5,-597.5 352.5,-561.5 406.5,-561.5 406.5,-597.5"/>
</g>
<!-- block_0 -->
<g id="node2" class="node">
<title>block_0</title>
<polygon fill="none" stroke="black" points="630.5,-621 424.5,-621 424.5,-538 630.5,-538 630.5,-621"/>
<text text-anchor="start" x="432.5" y="-605.8" font-family="Courier,monospace" font-size="14.00">block_0: ; entry</text>
<text text-anchor="start" x="432.5" y="-590.8" font-family="Courier,monospace" font-size="14.00">%0 = load_const 0 &#160;; i </text>
<text text-anchor="start" x="432.5" y="-575.8" font-family="Courier,monospace" font-size="14.00">%1 = load_const 1 &#160;; 1 </text>
<text text-anchor="start" x="432.5" y="-560.8" font-family="Courier,monospace" font-size="14.00">%2 = load_const &#45;1 </text>
<text text-anchor="middle" x="527.5" y="-545.8" font-family="Courier,monospace" font-size="14.00">jump block_2</text>
</g>
<!-- block_2 -->
<g id="node4" class="node">
<title>block_2</title>
<polygon fill="none" stroke="black" points="754.5,-501 300.5,-501 300.5,-418 754.5,-418 754.5,-501"/>
<text text-anchor="start" x="308.5" y="-485.8" font-family="Courier,monospace" font-size="14.00">block_2: ; for loop condition at line 6</text>
<text text-anchor="start" x="308.5" y="-470.8" font-family="Courier,monospace" font-size="14.00">%6 = phi { block_0 &#45;&gt; %1, block_6 &#45;&gt; %17 } ; i &#160;&#160;&#160;&#160;&#160;&#160;</text>
<text text-anchor="start" x="308.5" y="-455.8" font-family="Courier,monospace" font-size="14.00">%7 = load global:row &#160;&#160;&#160;&#160;&#160;&#160;&#160;&#160;&#160;&#160;&#160;&#160;&#160;&#160;&#160;&#160;&#160;&#160;&#160;&#160;&#160;&#160;; row &#160;&#160;&#160;&#160;</text>
<text text-anchor="start" x="308.5" y="-440.8" font-family="Courier,monospace" font-size="14.00">%8 = less %6, %7 &#160;&#160;&#160;&#160;&#160;&#160;&#160;&#160;&#160;&#160;&#160;&#160;&#160;&#160;&#160;&#160;&#160;&#160;&#160;&#160;&#160;&#160;&#160;&#160;&#160;&#160;; i &lt; row </text>
<text text-anchor="middle" x="527.5" y="-425.8" font-family="Courier,monospace" font-size="14.00">cond_jump %8 block_1 block_3</text>
</g>
<!-- block_0&#45;&gt;block_2 -->
<g id="edge1" class="edge">
<title>block_0&#45;&gt;block_2</title>
<path fill="none" stroke="black" d="M527.5,-537.89C527.5,-529.36 527.5,-520.26 527.5,-511.41"/>
<polygon fill="black" stroke="black" points="531,-511.18 527.5,-501.18 524,-511.18 531,-511.18"/>
</g>
<!-- block_1 -->
<g id="node3" class="node">
<title>block_1</title>
<polygon fill="none" stroke="black" points="467,-367 170,-367 170,-284 467,-284 467,-367"/>
<text text-anchor="start" x="178" y="-351.8" font-family="Courier,monospace" font-size="14.00">block_1: ; for loop body at line 6</text>
<text text-anchor="start" x="178" y="-336.8" font-family="Courier,monospace" font-size="14.00">%3 = add %6, %2 ; &#45;1 + i &#160;&#160;&#160;&#160;&#160;</text>
<text text-anchor="start" x="178" y="-321.8" font-family="Courier,monospace" font-size="14.00">%4 = mul %7, %3 ; i * row &#45; row </text>
<text text-anchor="start" x="178" y="-306.8" font-family="Courier,monospace" font-size="14.00">%5 = add %4, %7 ; i * row &#160;&#160;&#160;&#160;&#160;</text>
<text text-anchor="middle" x="318.5" y="-291.8" font-family="Courier,monospace" font-size="14.00">jump block_5</text>
</g>
<!-- block_5 -->
<g id="node7" class="node">
<title>block_5</title>
<polygon fill="none" stroke="black" points="540.5,-247 78.5,-247 78.5,-164 540.5,-164 540.5,-247"/>
<text text-anchor="start" x="86.5" y="-231.8" font-family="Courier,monospace" font-size="14.00">block_5: ; for loop condition at line 7</text>
<text text-anchor="start" x="86.5" y="-216.8" font-family="Courier,monospace" font-size="14.00">%14 = phi { block_1 &#45;&gt; %0, block_4 &#45;&gt; %13 } ; j &#160;&#160;&#160;&#160;&#160;&#160;</text>
<text text-anchor="start" x="86.5" y="-201.8" font-family="Courier,monospace" font-size="14.00">%15 = load global:col &#160;&#160;&#160;&#160;&#160;&#160;&#160;&#160;&#160;&#160;&#160;&#160;&#160;&#160;&#160;&#160;&#160;&#160;&#160;&#160;&#160;&#160;; col &#160;&#160;&#160;&#160;</text>
<text text-anchor="start" x="86.5" y="-186.8" font-family="Courier,monospace" font-size="14.00">%16 = less %14, %15 &#160;&#160;&#160;&#160;&#160;&#160;&#160;&#160;&#160;&#160;&#160;&#160;&#160;&#160;&#160;&#160;&#160;&#160;&#160;&#160;&#160;&#160;&#160;&#160;; j &lt; col </text>
<text text-anchor="middle" x="309.5" y="-171.8" font-family="Courier,monospace" font-size="14.00">cond_jump %16 block_4 block_6</text>
</g>
<!-- block_1&#45;&gt;block_5 -->
<g id="edge2" class="edge">
<title>block_1&#45;&gt;block_5</title>
<path fill="none" stroke="black" d="M315.4,-283.89C314.75,-275.36 314.06,-266.26 313.38,-257.41"/>
<polygon fill="black" stroke="black" points="316.85,-256.89 312.6,-247.18 309.87,-257.42 316.85,-256.89"/>
</g>
<!-- block_2&#45;&gt;block_1 -->
<g id="edge3" class="edge">
<title>block_2&#45;&gt;block_1</title>
<path fill="none" stroke="black" d="M463.37,-418C440.61,-403.62 414.83,-387.34 391.39,-372.53"/>
<polygon fill="black" stroke="black" points="393.19,-369.53 382.87,-367.15 389.45,-375.45 393.19,-369.53"/>
<text text-anchor="middle" x="445" y="-388.8" font-family="Times,serif" font-size="14.00">true</text>
</g>
<!-- block_3 -->
<g id="node5" class="node">
<title>block_3</title>
<polygon fill="none" stroke="black" points="569,-344.5 486,-344.5 486,-306.5 569,-306.5 569,-344.5"/>
<text text-anchor="start" x="494" y="-329.3" font-family="Courier,monospace" font-size="14.00">block_3:</text>
<text text-anchor="middle" x="527.5" y="-314.3" font-family="Courier,monospace" font-size="14.00">return</text>
</g>
<!-- block_2&#45;&gt;block_3 -->
<g id="edge4" class="edge">
<title>block_2&#45;&gt;block_3</title>
<path fill="none" stroke="black" d="M527.5,-417.82C527.5,-397.43 527.5,-373.24 527.5,-354.88"/>
<polygon fill="black" stroke="black" points="531,-354.82 527.5,-344.82 524,-354.82 531,-354.82"/>
<text text-anchor="middle" x="544.5" y="-388.8" font-family="Times,serif" font-size="14.00">false</text>
</g>
<!-- block_4 -->
<g id="node6" class="node">
<title>block_4</title>
<polygon fill="none" stroke="black" points="503,-113 0,-113 0,0 503,0 503,-113"/>
<text text-anchor="start" x="8" y="-97.8" font-family="Courier,monospace" font-size="14.00">block_4: ; for loop body at line 7</text>
<text text-anchor="start" x="8" y="-82.8" font-family="Courier,monospace" font-size="14.00">%9 &#160;= add %14, %4 &#160;&#160;&#160;&#160;&#160;&#160;&#160;&#160;&#160;&#160;&#160;&#160;&#160;&#160;&#160;&#160;&#160;&#160;&#160;&#160;&#160;; (i &#45; 1) * row + j </text>
<text text-anchor="start" x="8" y="-67.8" font-family="Courier,monospace" font-size="14.00">%10 = add %14, %5 &#160;&#160;&#160;&#160;&#160;&#160;&#160;&#160;&#160;&#160;&#160;&#160;&#160;&#160;&#160;&#160;&#160;&#160;&#160;&#160;&#160;; i * row + j &#160;&#160;&#160;&#160;&#160;&#160;</text>
<text text-anchor="start" x="8" y="-52.8" font-family="Courier,monospace" font-size="14.00">%11 = load_array global:image[%10] &#160;&#160;&#160;&#160;; image[i2] &#160;&#160;&#160;&#160;&#160;&#160;&#160;&#160;</text>
<text text-anchor="start" x="8" y="-37.8" font-family="Courier,monospace" font-size="14.00">%12 = store_array global:image[%9] %11 </text>
<text text-anchor="start" x="8" y="-22.8" font-family="Courier,monospace" font-size="14.00">%13 = add %14, %1 &#160;&#160;&#160;&#160;&#160;&#160;&#160;&#160;&#160;&#160;&#160;&#160;&#160;&#160;&#160;&#160;&#160;&#160;&#160;&#160;&#160;</text>
<text text-anchor="middle" x="251.5" y="-7.8" font-family="Courier,monospace" font-size="14.00">jump block_5</text>
</g>
<!-- block_4&#45;&gt;block_5 -->
<g id="edge5" class="edge">
<title>block_4&#45;&gt;block_5</title>
<path fill="none" stroke="black" d="M287.47,-113.06C290.47,-118.98 293.22,-125.02 295.5,-131 298.26,-138.26 300.5,-146.13 302.3,-153.94"/>
<polygon fill="black" stroke="black" points="298.88,-154.67 304.36,-163.74 305.73,-153.23 298.88,-154.67"/>
</g>
<!-- block_5&#45;&gt;block_4 -->
<g id="edge6" class="edge">
<title>block_5&#45;&gt;block_4</title>
<path fill="none" stroke="black" d="M270.38,-163.68C266.51,-158.05 263.08,-152.1 260.5,-146 257.46,-138.8 255.27,-130.98 253.71,-123.08"/>
<polygon fill="black" stroke="black" points="257.14,-122.36 252.06,-113.06 250.24,-123.49 257.14,-122.36"/>
<text text-anchor="middle" x="276" y="-134.8" font-family="Times,serif" font-size="14.00">true</text>
</g>
<!-- block_6 -->
<g id="node8" class="node">
<title>block_6</title>
<polygon fill="none" stroke="black" points="678,-83 521,-83 521,-30 678,-30 678,-83"/>
<text text-anchor="start" x="529" y="-67.8" font-family="Courier,monospace" font-size="14.00">block_6:</text>
<text text-anchor="start" x="529" y="-52.8" font-family="Courier,monospace" font-size="14.00">%17 = add %6, %1 </text>
<text text-anchor="middle" x="599.5" y="-37.8" font-family="Courier,monospace" font-size="14.00">jump block_2</text>
</g>
<!-- block_5&#45;&gt;block_6 -->
<g id="edge7" class="edge">
<title>block_5&#45;&gt;block_6</title>
<path fill="none" stroke="black" d="M406.12,-163.97C439.94,-148.94 477.86,-131.12 511.5,-113 525.07,-105.69 539.36,-97.09 552.4,-88.87"/>
<polygon fill="black" stroke="black" points="554.65,-91.59 561.2,-83.26 550.88,-85.69 554.65,-91.59"/>
<text text-anchor="middle" x="491.5" y="-134.8" font-family="Times,serif" font-size="14.00">false</text>
</g>
<!-- block_6&#45;&gt;block_2 -->
<g id="edge8" class="edge">
<title>block_6&#45;&gt;block_2</title>
<path fill="none" stroke="black" d="M600.39,-83.15C601.68,-136.66 601.75,-263.76 578.5,-367 575.25,-381.42 568.93,-395.9 561.81,-408.95"/>
<polygon fill="black" stroke="black" points="558.71,-407.32 556.78,-417.74 564.79,-410.8 558.71,-407.32"/>
</g>
</g>
</svg>
