<?xml version="1.0" encoding="UTF-8" standalone="no"?>
<!DOCTYPE svg PUBLIC "-//W3C//DTD SVG 1.1//EN"
 "http://www.w3.org/Graphics/SVG/1.1/DTD/svg11.dtd">
<!-- Generated by graphviz version 2.43.0 (0)
 -->
<!-- Title: G Pages: 1 -->
<svg width="763pt" height="629pt"
 viewBox="0.00 0.00 762.50 629.00" xmlns="http://www.w3.org/2000/svg" xmlns:xlink="http://www.w3.org/1999/xlink">
<g id="graph0" class="graph" transform="scale(1 1) rotate(0) translate(4 625)">
<title>G</title>
<polygon fill="white" stroke="transparent" points="-4,4 -4,-625 758.5,-625 758.5,4 -4,4"/>
<!-- stack_slots -->
<g id="node1" class="node">
<title>stack_slots</title>
<polygon fill="none" stroke="black" points="410.5,-605 356.5,-605 356.5,-569 410.5,-569 410.5,-605"/>
</g>
<!-- block_0 -->
<g id="node2" class="node">
<title>block_0</title>
<polygon fill="none" stroke="black" points="626.5,-621 428.5,-621 428.5,-553 626.5,-553 626.5,-621"/>
<text text-anchor="start" x="436.5" y="-605.8" font-family="Courier,monospace" font-size="14.00">block_0: ; entry</text>
<text text-anchor="start" x="436.5" y="-590.8" font-family="Courier,monospace" font-size="14.00">%0 = load_const 0 ; i </text>
<text text-anchor="start" x="436.5" y="-575.8" font-family="Courier,monospace" font-size="14.00">%1 = load_const 1 ; 1 </text>
<text text-anchor="middle" x="527.5" y="-560.8" font-family="Courier,monospace" font-size="14.00">jump block_2</text>
</g>
<!-- block_2 -->
<g id="node4" class="node">
<title>block_2</title>
<polygon fill="none" stroke="black" points="754.5,-516 300.5,-516 300.5,-433 754.5,-433 754.5,-516"/>
<text text-anchor="start" x="308.5" y="-500.8" font-family="Courier,monospace" font-size="14.00">block_2: ; for loop condition at line 6</text>
<text text-anchor="start" x="308.5" y="-485.8" font-family="Courier,monospace" font-size="14.00">%2 = phi { block_0 &#45;&gt; %1, block_6 &#45;&gt; %17 } ; i &#160;&#160;&#160;&#160;&#160;&#160;</text>
<text text-anchor="start" x="308.5" y="-470.8" font-family="Courier,monospace" font-size="14.00">%3 = load global:row &#160;&#160;&#160;&#160;&#160;&#160;&#160;&#160;&#160;&#160;&#160;&#160;&#160;&#160;&#160;&#160;&#160;&#160;&#160;&#160;&#160;&#160;; row &#160;&#160;&#160;&#160;</text>
<text text-anchor="start" x="308.5" y="-455.8" font-family="Courier,monospace" font-size="14.00">%4 = less %2, %3 &#160;&#160;&#160;&#160;&#160;&#160;&#160;&#160;&#160;&#160;&#160;&#160;&#160;&#160;&#160;&#160;&#160;&#160;&#160;&#160;&#160;&#160;&#160;&#160;&#160;&#160;; i &lt; row </text>
<text text-anchor="middle" x="527.5" y="-440.8" font-family="Courier,monospace" font-size="14.00">cond_jump %4 block_1 block_3</text>
</g>
<!-- block_0&#45;&gt;block_2 -->
<g id="edge1" class="edge">
<title>block_0&#45;&gt;block_2</title>
<path fill="none" stroke="black" d="M527.5,-552.85C527.5,-544.44 527.5,-535.22 527.5,-526.16"/>
<polygon fill="black" stroke="black" points="531,-526.06 527.5,-516.06 524,-526.06 531,-526.06"/>
</g>
<!-- block_1 -->
<g id="node3" class="node">
<title>block_1</title>
<polygon fill="none" stroke="black" points="467,-382 170,-382 170,-344 467,-344 467,-382"/>
<text text-anchor="start" x="178" y="-366.8" font-family="Courier,monospace" font-size="14.00">block_1: ; for loop body at line 6</text>
<text text-anchor="middle" x="318.5" y="-351.8" font-family="Courier,monospace" font-size="14.00">jump block_5</text>
</g>
<!-- block_5 -->
<g id="node7" class="node">
<title>block_5</title>
<polygon fill="none" stroke="black" points="540.5,-307 78.5,-307 78.5,-224 540.5,-224 540.5,-307"/>
<text text-anchor="start" x="86.5" y="-291.8" font-family="Courier,monospace" font-size="14.00">block_5: ; for loop condition at line 7</text>
<text text-anchor="start" x="86.5" y="-276.8" font-family="Courier,monospace" font-size="14.00">%14 = phi { block_1 &#45;&gt; %0, block_4 &#45;&gt; %13 } ; j &#160;&#160;&#160;&#160;&#160;&#160;</text>
<text text-anchor="start" x="86.5" y="-261.8" font-family="Courier,monospace" font-size="14.00">%15 = load global:col &#160;&#160;&#160;&#160;&#160;&#160;&#160;&#160;&#160;&#160;&#160;&#160;&#160;&#160;&#160;&#160;&#160;&#160;&#160;&#160;&#160;&#160;; col &#160;&#160;&#160;&#160;</text>
<text text-anchor="start" x="86.5" y="-246.8" font-family="Courier,monospace" font-size="14.00">%16 = less %14, %15 &#160;&#160;&#160;&#160;&#160;&#160;&#160;&#160;&#160;&#160;&#160;&#160;&#160;&#160;&#160;&#160;&#160;&#160;&#160;&#160;&#160;&#160;&#160;&#160;; j &lt; col </text>
<text text-anchor="middle" x="309.5" y="-231.8" font-family="Courier,monospace" font-size="14.00">cond_jump %16 block_4 block_6</text>
</g>
<!-- block_1&#45;&gt;block_5 -->
<g id="edge2" class="edge">
<title>block_1&#45;&gt;block_5</title>
<path fill="none" stroke="black" d="M316.76,-343.59C316.04,-335.94 315.17,-326.66 314.28,-317.23"/>
<polygon fill="black" stroke="black" points="317.74,-316.63 313.32,-307 310.77,-317.28 317.74,-316.63"/>
</g>
<!-- block_2&#45;&gt;block_1 -->
<g id="edge3" class="edge">
<title>block_2&#45;&gt;block_1</title>
<path fill="none" stroke="black" d="M449.97,-432.88C420.28,-417.32 387.47,-400.13 362.05,-386.82"/>
<polygon fill="black" stroke="black" points="363.52,-383.64 353.04,-382.1 360.27,-389.84 363.52,-383.64"/>
<text text-anchor="middle" x="426" y="-403.8" font-family="Times,serif" font-size="14.00">true</text>
</g>
<!-- block_3 -->
<g id="node5" class="node">
<title>block_3</title>
<polygon fill="none" stroke="black" points="569,-382 486,-382 486,-344 569,-344 569,-382"/>
<text text-anchor="start" x="494" y="-366.8" font-family="Courier,monospace" font-size="14.00">block_3:</text>
<text text-anchor="middle" x="527.5" y="-351.8" font-family="Courier,monospace" font-size="14.00">return</text>
</g>
<!-- block_2&#45;&gt;block_3 -->
<g id="edge4" class="edge">
<title>block_2&#45;&gt;block_3</title>
<path fill="none" stroke="black" d="M527.5,-432.73C527.5,-419.28 527.5,-404.62 527.5,-392.31"/>
<polygon fill="black" stroke="black" points="531,-392.19 527.5,-382.19 524,-392.19 531,-392.19"/>
<text text-anchor="middle" x="544.5" y="-403.8" font-family="Times,serif" font-size="14.00">false</text>
</g>
<!-- block_4 -->
<g id="node6" class="node">
<title>block_4</title>
<polygon fill="none" stroke="black" points="503,-173 0,-173 0,0 503,0 503,-173"/>
<text text-anchor="start" x="8" y="-157.8" font-family="Courier,monospace" font-size="14.00">block_4: ; for loop body at line 7</text>
<text text-anchor="start" x="8" y="-142.8" font-family="Courier,monospace" font-size="14.00">%5 &#160;= load_const &#45;1 &#160;&#160;&#160;&#160;&#160;&#160;&#160;&#160;&#160;&#160;&#160;&#160;&#160;&#160;&#160;&#160;&#160;&#160;&#160;</text>
<text text-anchor="start" x="8" y="-127.8" font-family="Courier,monospace" font-size="14.00">%6 &#160;= add %2, %5 &#160;&#160;&#160;&#160;&#160;&#160;&#160;&#160;&#160;&#160;&#160;&#160;&#160;&#160;&#160;&#160;&#160;&#160;&#160;&#160;&#160;&#160;; (i &#45; 1) &#160;&#160;&#160;&#160;&#160;&#160;&#160;&#160;&#160;&#160;</text>
<text text-anchor="start" x="8" y="-112.8" font-family="Courier,monospace" font-size="14.00">%7 &#160;= mul %6, %3 &#160;&#160;&#160;&#160;&#160;&#160;&#160;&#160;&#160;&#160;&#160;&#160;&#160;&#160;&#160;&#160;&#160;&#160;&#160;&#160;&#160;&#160;; (i &#45; 1) * row &#160;&#160;&#160;&#160;</text>
<text text-anchor="start" x="8" y="-97.8" font-family="Courier,monospace" font-size="14.00">%8 &#160;= add %7, %14 &#160;&#160;&#160;&#160;&#160;&#160;&#160;&#160;&#160;&#160;&#160;&#160;&#160;&#160;&#160;&#160;&#160;&#160;&#160;&#160;&#160;; (i &#45; 1) * row + j </text>
<text text-anchor="start" x="8" y="-82.8" font-family="Courier,monospace" font-size="14.00">%9 &#160;= add %3, %7 &#160;&#160;&#160;&#160;&#160;&#160;&#160;&#160;&#160;&#160;&#160;&#160;&#160;&#160;&#160;&#160;&#160;&#160;&#160;&#160;&#160;&#160;; i * row &#160;&#160;&#160;&#160;&#160;&#160;&#160;&#160;&#160;&#160;</text>
<text text-anchor="start" x="8" y="-67.8" font-family="Courier,monospace" font-size="14.00">%10 = add %9, %14 &#160;&#160;&#160;&#160;&#160;&#160;&#160;&#160;&#160;&#160;&#160;&#160;&#160;&#160;&#160;&#160;&#160;&#160;&#160;&#160;&#160;; i * row + j &#160;&#160;&#160;&#160;&#160;&#160;</text>
<text text-anchor="start" x="8" y="-52.8" font-family="Courier,monospace" font-size="14.00">%11 = load_array global:image[%10] &#160;&#160;&#160;&#160;; image[i2] &#160;&#160;&#160;&#160;&#160;&#160;&#160;&#160;</text>
<text text-anchor="start" x="8" y="-37.8" font-family="Courier,monospace" font-size="14.00">%12 = store_array global:image[%8] %11 </text>
<text text-anchor="start" x="8" y="-22.8" font-family="Courier,monospace" font-size="14.00">%13 = add %14, %1 &#160;&#160;&#160;&#160;&#160;&#160;&#160;&#160;&#160;&#160;&#160;&#160;&#160;&#160;&#160;&#160;&#160;&#160;&#160;&#160;&#160;</text>
<text text-anchor="middle" x="251.5" y="-7.8" font-family="Courier,monospace" font-size="14.00">jump block_5</text>
</g>
<!-- block_4&#45;&gt;block_5 -->
<g id="edge5" class="edge">
<title>block_4&#45;&gt;block_5</title>
<path fill="none" stroke="black" d="M289.54,-173.11C291.7,-179.11 293.71,-185.12 295.5,-191 297.71,-198.26 299.63,-206.03 301.3,-213.71"/>
<polygon fill="black" stroke="black" points="297.9,-214.59 303.33,-223.69 304.76,-213.19 297.9,-214.59"/>
</g>
<!-- block_5&#45;&gt;block_4 -->
<g id="edge6" class="edge">
<title>block_5&#45;&gt;block_4</title>
<path fill="none" stroke="black" d="M270.23,-223.74C266.39,-218.11 263,-212.14 260.5,-206 257.55,-198.74 255.27,-191.03 253.54,-183.16"/>
<polygon fill="black" stroke="black" points="256.94,-182.3 251.62,-173.13 250.06,-183.61 256.94,-182.3"/>
<text text-anchor="middle" x="276" y="-194.8" font-family="Times,serif" font-size="14.00">true</text>
</g>
<!-- block_6 -->
<g id="node8" class="node">
<title>block_6</title>
<polygon fill="none" stroke="black" points="678,-113 521,-113 521,-60 678,-60 678,-113"/>
<text text-anchor="start" x="529" y="-97.8" font-family="Courier,monospace" font-size="14.00">block_6:</text>
<text text-anchor="start" x="529" y="-82.8" font-family="Courier,monospace" font-size="14.00">%17 = add %2, %1 </text>
<text text-anchor="middle" x="599.5" y="-67.8" font-family="Courier,monospace" font-size="14.00">jump block_2</text>
</g>
<!-- block_5&#45;&gt;block_6 -->
<g id="edge7" class="edge">
<title>block_5&#45;&gt;block_6</title>
<path fill="none" stroke="black" d="M417.25,-223.94C448.84,-209.9 482.63,-192.67 511.5,-173 533.18,-158.23 554.36,-137.89 570.51,-120.75"/>
<polygon fill="black" stroke="black" points="573.34,-122.85 577.56,-113.13 568.2,-118.09 573.34,-122.85"/>
<text text-anchor="middle" x="498.5" y="-194.8" font-family="Times,serif" font-size="14.00">false</text>
</g>
<!-- block_6&#45;&gt;block_2 -->
<g id="edge8" class="edge">
<title>block_6&#45;&gt;block_2</title>
<path fill="none" stroke="black" d="M600.26,-113.09C601.23,-164.67 600.63,-284.53 578.5,-382 575.23,-396.41 568.9,-410.89 561.78,-423.94"/>
<polygon fill="black" stroke="black" points="558.67,-422.32 556.75,-432.73 564.75,-425.79 558.67,-422.32"/>
</g>
</g>
</svg>
